<svg id="Layer_1" data-name="Layer 1" xmlns="http://www.w3.org/2000/svg" viewBox="0 0 300 300"><defs><style>.cls-1{fill:#364f6b;}</style></defs><title>sifrr-logoArtboard 1</title><path class="cls-1" d="M150.79,170.61c-26.12,0-52.23,0-78.34,0-2.27,0-2.8-.59-2.8-2.82q.1-64.43.06-128.85c0-7.13,3.86-11,10.94-11H220.57q11.25,0,11.26,11.22,0,64.16.06,128.31c0,2.38-.5,3.14-3,3.13C202.83,170.57,176.81,170.61,150.79,170.61Zm.26-116.74c-24,0-47.92,0-71.88,0-2.19,0-3.06.27-3,2.85q.15,52.42,0,104.84c0,2,.39,2.74,2.61,2.73q72-.09,144,0c2.2,0,2.63-.68,2.62-2.72q-.09-52.43,0-104.84c0-2.56-.83-2.87-3-2.86C198.6,53.9,174.82,53.87,151.05,53.87Zm-.41-6.4q33.77,0,67.55,0c2.31,0,5.36,1,6.75-.47s.37-4.46.4-6.79c0-5.18-.57-5.77-5.67-5.77H81.87c-.63,0-1.27,0-1.89,0-2.67.16-3.72,1.22-3.78,3.88,0,2,.16,4,0,5.94-.28,2.54.45,3.31,3.15,3.3C103.08,47.42,126.86,47.47,150.64,47.47Z"/><path class="cls-1" d="M53.44,272a39.79,39.79,0,0,1-12.21-1.76c-1.38-.45-2.59-5.62-1.54-6.57.58-.52,1.17.07,1.73.26A35.15,35.15,0,0,0,58.37,266c5.87-.85,8.41-3.63,8.37-8.64,0-3.2-1.71-5.13-4.35-6.55-3.73-2-7.83-3.12-11.65-4.88-4-1.86-7.83-4.1-9.51-8.61-3.22-8.65,1-16.33,10.26-18.25,6.48-1.34,12.86-.52,19.12,1.53,1.33.43,1.5,1,1.09,2.15-.1.25-.22.49-.33.74-1.4,3.44-1.39,3.43-5,2.35a27.8,27.8,0,0,0-13.27-1.14c-3.71.68-5.71,2.4-6.23,5.35-.69,3.9.71,7.11,4,8.93,3.86,2.15,8.1,3.39,12.17,5,8.1,3.25,11.37,8.7,9.89,16.52-1,5.54-5.54,9.53-12.27,10.91A31.48,31.48,0,0,1,53.44,272Z"/><path class="cls-1" d="M152.44,254.44c0,4.88-.09,9.77.05,14.65,0,1.91-.52,2.63-2.4,2.36a6.58,6.58,0,0,0-1.88,0c-1.8.26-2.27-.48-2.26-2.24.08-9.63,0-19.26.09-28.89,0-2.1-.52-2.88-2.68-2.69s-4.31,0-6.47,0c-1.15,0-2.36.3-2.29-1.64.05-1.6.06-2.78,2.16-2.84,2.32-.07,4.64-.5,7-.63,1.65-.1,2.38-.63,2.3-2.45-.49-11.49,5.24-14.8,15.5-14.29,1.34.07,2.68.3,4,.5,3.42.5,3.53.73,2.46,4-.37,1.16-.78,1.77-2.24,1.47a30.52,30.52,0,0,0-5.88-.57c-5.16,0-6.7,1.36-7.37,6.44-.64,4.88-.64,4.88,4.23,4.88,2.52,0,5.05.16,7.55,0,2.33-.19,2.05,1.19,2.11,2.67.06,1.65,0,2.7-2.22,2.57-3.23-.19-6.48,0-9.72-.09-1.69-.06-2.13.51-2.09,2.15.1,4.88,0,9.77,0,14.66Z"/><path class="cls-1" d="M107.39,249.32c0,4.66.14,9.32-.06,14-.11,2.68,1,3.37,3.43,3.32s4.84.28,7.27.29c2.26,0,1.83,1.49,1.93,2.9.12,1.66-.85,1.65-2,1.64q-13.78,0-27.56,0c-1.15,0-2-.13-1.74-1.55.24-1.08-1-2.88,1.5-2.92,2.69,0,5.38-.32,8.07-.39,1.68,0,2.62-.44,2.6-2.46q-.15-12.17,0-24.32c0-1.8-.72-2.4-2.35-2.43s-3.06-.27-4.58-.24c-2.28.05-2.8-1.07-2.61-3.14.11-1.21.49-1.51,1.61-1.49,4.32,0,8.65.05,13,0,1.37,0,1.59.53,1.57,1.78C107.34,239.29,107.39,244.31,107.39,249.32Z"/><path class="cls-1" d="M191.93,239.05c6.13-8.88,13.39-8.28,20-6.66,1.77.44,2.19,1.2,1.4,2.78a2.71,2.71,0,0,0-.35,1c-.16,2.27-1.09,2.79-3.29,1.93a14.78,14.78,0,0,0-7.15-.87c-6.08.69-9.83,4.12-10.15,10.23-.36,7-.28,14-.18,21,0,2.29-.42,3.16-2.91,3-3.77-.24-3.78-.06-3.78-3.68q0-16.42,0-32.84c0-1.23-.37-2.75,1.72-2.44,1.52.22,3.83-1.08,3.91,2.07A10.63,10.63,0,0,0,191.93,239.05Z"/><path class="cls-1" d="M238.74,239.23c6.1-7.44,12.22-9.39,20.14-6.86,1.64.52,2.31,1.1,1.46,2.77a5.51,5.51,0,0,0-.52,1.79c-.23,1.72-1.09,2-2.6,1.37a16.28,16.28,0,0,0-9.53-.82,10.08,10.08,0,0,0-8.31,10c-.33,7.09-.39,14.21-.15,21.3.13,3.69-2.18,2.46-4,2.73-2.32.35-2.79-.6-2.77-2.8.12-11.21.07-22.43.08-33.65,0-1.19-.47-2.71,1.67-2.49,1.68.18,4-.9,4,2.32A36.68,36.68,0,0,0,238.74,239.23Z"/><path class="cls-1" d="M108,220.39a3.84,3.84,0,0,1-4.07,4c-2.31,0-3.7-1.72-3.63-4.38a3.57,3.57,0,0,1,3.73-3.72A3.7,3.7,0,0,1,108,220.39Z"/><path class="cls-1" d="M105.49,102.56l16.67,9.51c2.53,1.45,3.26,3.07,2.24,4.92s-2.84,2.25-5.33.84q-10.63-6-21.19-12.09c-3.09-1.79-3-4.64.1-6.45q10.69-6.15,21.44-12.2c2.4-1.35,4.44-1,5.36.78s.19,3.46-2.3,4.9Z"/><path class="cls-1" d="M196.08,102.55c-5.92-3.37-11.36-6.45-16.79-9.55-.93-.53-2-1-2.35-2.11a3.27,3.27,0,0,1,4.58-4.14c7.65,4.29,15.29,8.6,22.84,13.07a3.13,3.13,0,0,1-.14,5.56Q193.2,111.82,182,118c-1.78,1-3.63,1.13-4.86-1-1-1.8-.38-3.49,1.94-4.82C184.61,109.06,190.12,105.94,196.08,102.55Z"/><path class="cls-1" d="M138,140.36a1,1,0,0,1-1-1.4L148,108.89l-13.22-3.77a1,1,0,0,1-.72-.7,1.08,1.08,0,0,1,.2-1l26.82-31.85a1,1,0,0,1,1.81,1l-7.74,26.82,13.3,3.8a1,1,0,0,1,.71.7,1,1,0,0,1-.21,1L138.82,140A1.05,1.05,0,0,1,138,140.36Z"/></svg>